<svg xmlns="http://www.w3.org/2000/svg" viewBox="0 0 50 50" preserveAspectRatio="xMidYMid"><defs><style>.cls-1{fill:none;}.cls-2{fill:#fff;}</style></defs><g id="Layer_2" data-name="Layer 2"><g id="Layer_1-2" data-name="Layer 1"><rect class="cls-1" width="50" height="50"/><rect class="cls-2" x="7.03" y="38.13" width="6.33" height="3.71"/><polygon class="cls-2" points="50 19.73 50 0 30.63 0 30.63 3.26 26.95 3.26 26.95 6.97 28.48 6.97 28.48 23.46 32.18 23.46 32.18 13.85 39.74 13.85 39.74 10.14 32.18 10.14 32.18 6.97 34.34 6.97 34.34 3.71 46.29 3.71 46.29 16.02 42.93 16.02 42.93 20.24 35.6 20.24 35.6 23.95 42.93 23.95 42.93 33.96 46.29 33.96 46.29 36.37 38.97 36.37 38.97 40.08 46.29 40.08 46.29 46.29 34.6 46.29 34.6 43.24 32.18 43.24 32.18 34.56 35.6 34.56 35.6 30.85 28.48 30.85 28.48 43.24 22.2 43.24 22.2 36.37 18.49 36.37 18.49 43.24 15.66 43.24 15.66 46.29 3.71 46.29 3.71 33.96 12.87 33.96 12.87 30.25 6.73 30.25 6.73 26.26 18.49 26.26 18.49 30.47 22.2 30.47 22.2 16.53 18.49 16.53 18.49 22.55 6.73 22.55 6.73 16.02 3.71 16.02 3.71 3.71 8.91 3.71 8.91 11.13 12.62 11.13 12.62 3.71 15.43 3.71 15.43 6.97 18.49 6.97 18.49 11.13 22.2 11.13 22.2 6.97 23.5 6.97 23.5 3.26 19.14 3.26 19.14 0 0 0 0 19.73 3.02 19.73 3.02 30.25 0 30.25 0 50 19.37 50 19.37 46.95 30.89 46.95 30.89 50 50 50 50 30.25 46.64 30.25 46.64 19.73 50 19.73"/></g></g></svg>