<svg xmlns="http://www.w3.org/2000/svg" viewBox="0 0 50 50" preserveAspectRatio="xMidYMid"><defs><style>.cls-1{fill:none;}.cls-2{fill:#fff;}</style></defs><g id="Layer_2" data-name="Layer 2"><g id="Layer_1-2" data-name="Layer 1"><rect class="cls-1" width="50" height="50"/><path class="cls-2" d="M18.42,14.17H31.58a2.44,2.44,0,0,0,.32-.65,2.34,2.34,0,0,1,.47-1.32A18.64,18.64,0,0,1,35,10.34H15a18.64,18.64,0,0,1,2.62,1.86,2.34,2.34,0,0,1,.47,1.32A2.44,2.44,0,0,0,18.42,14.17Z"/><path class="cls-2" d="M32.6,19.75,17,25.12c.24-3.31.63-7.49.88-8.72a18.57,18.57,0,0,1,.56-1.87H31.61c.11.42.39,1.05.56,1.87C32.3,17,32.45,18.24,32.6,19.75Z"/><path class="cls-2" d="M39,43.5a1.57,1.57,0,0,1-1,1.31H12a1.57,1.57,0,0,1-1-1.31,1.21,1.21,0,0,1,.07-.35l23.37-8a22.71,22.71,0,0,0,1.43,3.17C37.06,40.61,39,42.46,39,43.5Z"/><path class="cls-2" d="M10,44.81A1.56,1.56,0,0,1,9,43.5c0-1,2-2.89,3.2-5.21,1.41-2.66,2-4.5,2-6.11,0-1.33-1.17-1.79-1.17-2.26,0-.22.11-.46.3-.46H11.58c-.2,0-.31.24-.31.46,0,.47,1.18.93,1.18,2.26,0,1.61-1,3.08-2.6,5.69-1.37,2.24-4.13,4.58-4.13,5.63A2.32,2.32,0,0,0,6,44.81Z"/><path class="cls-2" d="M14.22,12.2a2.27,2.27,0,0,1,.47,1.32,2.44,2.44,0,0,0,.32.65h1.72a2.44,2.44,0,0,1-.32-.65,2.34,2.34,0,0,0-.47-1.32,18.64,18.64,0,0,0-2.62-1.86H11.6A18.08,18.08,0,0,1,14.22,12.2Z"/><path class="cls-2" d="M13.24,1.47l-.89-.17C11.54,3.74,11.27,10,11.27,10H13Z"/><path class="cls-2" d="M16.7,14.53H15.1C15,15,14.69,16,14.52,16.8c-.39,1.84-1.46,9-1.73,12.14H15c0-2.28.71-10.71,1.1-12.54C16.31,15.58,16.59,15,16.7,14.53Z"/><path class="cls-2" d="M7.51,45.33H2.2C1.28,45.33,0,47.41,0,48a2.23,2.23,0,0,0,.09.7H5.4a2.23,2.23,0,0,1-.09-.7C5.31,47.41,6.59,45.33,7.51,45.33Z"/><path class="cls-2" d="M40.57,45.33H9.43c-.92,0-2.2,2.08-2.2,2.67a2.23,2.23,0,0,0,.09.7H42.68a2.23,2.23,0,0,0,.09-.7C42.77,47.41,41.49,45.33,40.57,45.33Z"/><path class="cls-2" d="M38.73,29.92c0-.22-.11-.46-.31-.46H36.63c.19,0,.3.24.3.46,0,.47-1.17.93-1.17,2.26,0,1.61.59,3.45,2,6.11C39,40.61,41,42.45,41,43.5a1.56,1.56,0,0,1-1,1.31h4a2.32,2.32,0,0,0,.29-1.31c0-1-2.76-3.39-4.13-5.63-1.59-2.61-2.6-4.08-2.6-5.69C37.55,30.85,38.73,30.39,38.73,29.92Z"/><path class="cls-2" d="M33.59,13.52a2.44,2.44,0,0,1-.32.65H35a2.44,2.44,0,0,0,.32-.65,2.27,2.27,0,0,1,.47-1.32,18.08,18.08,0,0,1,2.62-1.86H36.68a18.64,18.64,0,0,0-2.62,1.86A2.34,2.34,0,0,0,33.59,13.52Z"/><path class="cls-2" d="M38.73,10s-.27-6.24-1.08-8.68l-.89.17L37,10Z"/><path class="cls-2" d="M37.21,28.94c-.27-3.15-1.34-10.3-1.73-12.14C35.31,16,35,15,34.9,14.53H33.3c.11.42.39,1.05.56,1.87.39,1.83,1.07,10.26,1.1,12.54Z"/><path class="cls-2" d="M47.8,45.33H42.49c.92,0,2.2,2.08,2.2,2.67a2.23,2.23,0,0,1-.09.7h5.31A2.23,2.23,0,0,0,50,48C50,47.41,48.72,45.33,47.8,45.33Z"/><polygon class="cls-2" points="28.86 9.97 35.33 9.97 35.09 2.1 31.07 2.1 31.07 4.44 28.86 4.44 28.86 2.1 21.14 2.1 21.14 4.44 18.93 4.44 18.93 2.1 14.91 2.1 14.67 9.97 21.14 9.97 28.86 9.97"/><path class="cls-2" d="M24.77,23,15.84,38.43H33.71Zm0,4.12,5.37,9.29H19.41Z"/><polygon class="cls-2" points="27.56 34.88 21.98 34.88 24.77 30.05 27.56 34.88"/></g></g></svg>